# xmcd
#
# Track frame offsets: 
#        150
#        15247
#        41460
#        59662
#        75950
#        86805
#        103632
#        114485
#        126432
#        142575
#        153560
#        174697
#        192562
#        209897
#        230500
#        246210
#        268385
#        280822
#        291640
#        306795
#
# Disc length: 4372 seconds
#
# Revision: 3
# Processed by: cddbd v1.5.2PL0 Copyright (c) Steve Scherf et al.
# Submitted via: ExactAudioCopy v0.99pb4
#
DISCID=2d111214
DTITLE=Various Artist - Agia Napa - Fantasy Island [CD2]
DYEAR=2000
DGENRE=Garage
TTITLE0=Craig David - Re-Rewind The Crowd Say Bo Selecta
TTITLE1=Artful Dodger Presents Craig David - What Ya Gonna Do
TTITLE2=BBMAK - Still On Your Side
TTITLE3=Sunship Feat. Anita Kelsey - Try Me Out
TTITLE4=Fierce - Sweet Love 2K
TTITLE5=Bump N  Flex - Long Time Coming
TTITLE6=M Dubs Feat. Lady Saw - Bump 'N' Grind
TTITLE7=DJ Dee-Kline - I Don't Smoke
TTITLE8=New Horizons - Sweet DJ Release
TTITLE9=DEM 2 - Destiny
TTITLE10=Amira - My Desire
TTITLE11=N and G Feat. Rose Windross And Creed - Liferide
TTITLE12=James Brown - Funk On Ah Roll
TTITLE13=Lenny Fontanna - Spirit Of The Sun
TTITLE14=Colour Girl - Tears
TTITLE15=Nu-Birth - Anytime
TTITLE16=Smokin Beats Feat. Lyn Eden - Dreams
TTITLE17=Somore Feat. Damon Trueitt - I Refuse (What You Want)
TTITLE18=Doolally - Straight From The Heart
TTITLE19=Roy Davies Jr. Feat. Peven Everett - Gabriel
EXTD=
EXTT0=
EXTT1=
EXTT2=
EXTT3=
EXTT4=
EXTT5=
EXTT6=
EXTT7=
EXTT8=
EXTT9=
EXTT10=
EXTT11=
EXTT12=
EXTT13=
EXTT14=
EXTT15=
EXTT16=
EXTT17=
EXTT18=
EXTT19=
PLAYORDER=
